<svg xmlns="http://www.w3.org/2000/svg" viewBox="0 0 1000 1150" preserveAspectRatio="xMidYMid slice" role="img" aria-label="Landscape designer at work in the garden">
  <defs>
    <linearGradient id="abs" x1="0" y1="0" x2="0" y2="1"><stop offset="0" stop-color="#ece7d6"/><stop offset="1" stop-color="#d8d0b7"/></linearGradient>
    <linearGradient id="abf" x1="0" y1="0" x2="0" y2="1"><stop offset="0" stop-color="#6f8f4e"/><stop offset="1" stop-color="#4f6c36"/></linearGradient>
  </defs>
  <rect width="1000" height="1150" fill="url(#abs)"/>
  <path d="M0 620 C 260 585, 560 615, 1000 590 L1000 1150 L0 1150 Z" fill="url(#abf)"/>
  <g fill="#3f5a30"><ellipse cx="170" cy="560" rx="150" ry="180"/><ellipse cx="850" cy="590" rx="130" ry="160"/></g>
  <!-- figure -->
  <g transform="translate(500 640)">
    <rect x="-55" y="90" width="110" height="180" rx="26" fill="#c06a44"/>
    <circle cx="0" cy="40" r="46" fill="#e4b58c"/>
    <path d="M-46 40 A46 46 0 0 1 46 40 L36 22 A36 36 0 0 0 -36 22 Z" fill="#5a4632"/>
    <rect x="-70" y="150" width="30" height="110" rx="14" fill="#e4b58c"/>
  </g>
  <g fill="#e0d2ad"><circle cx="360" cy="820" r="20"/><circle cx="640" cy="840" r="18"/><circle cx="300" cy="880" r="15"/></g>
  <g fill="#d9a24b"><circle cx="700" cy="900" r="14"/><circle cx="260" cy="820" r="12"/></g>
</svg>
