<svg xmlns="http://www.w3.org/2000/svg" viewBox="0 0 1000 750" preserveAspectRatio="xMidYMid slice" role="img" aria-label="Pool and water feature">
  <defs>
    <linearGradient id="g3s" x1="0" y1="0" x2="0" y2="1"><stop offset="0" stop-color="#e9e4d3"/><stop offset="1" stop-color="#d6cfb6"/></linearGradient>
    <linearGradient id="g3w" x1="0" y1="0" x2="0" y2="1"><stop offset="0" stop-color="#79b4b0"/><stop offset="1" stop-color="#4d8f8c"/></linearGradient>
  </defs>
  <rect width="1000" height="750" fill="url(#g3s)"/>
  <path d="M0 320 C 260 300, 560 320, 1000 300 L1000 470 L0 470 Z" fill="#5f7a44"/>
  <rect x="0" y="450" width="1000" height="300" fill="#cbbd97"/>
  <rect x="130" y="500" width="740" height="210" rx="14" fill="url(#g3w)"/>
  <g stroke="#ffffff" stroke-opacity="0.35" stroke-width="4">
    <line x1="170" y1="560" x2="830" y2="560"/><line x1="170" y1="620" x2="830" y2="620"/><line x1="170" y1="670" x2="830" y2="670"/>
  </g>
  <g fill="#3f5a30"><ellipse cx="120" cy="330" rx="90" ry="120"/><ellipse cx="900" cy="330" rx="80" ry="110"/></g>
  <rect x="450" y="392" width="100" height="60" fill="#8a99a0"/>
  <path d="M470 452 C 480 480, 520 480, 530 452 Z" fill="#79b4b0"/>
</svg>
