<svg xmlns="http://www.w3.org/2000/svg" viewBox="0 0 1000 750" preserveAspectRatio="xMidYMid slice" role="img" aria-label="Modern patio at dusk">
  <defs>
    <linearGradient id="g1s" x1="0" y1="0" x2="0" y2="1"><stop offset="0" stop-color="#f0dcc0"/><stop offset="1" stop-color="#c9a988"/></linearGradient>
    <linearGradient id="g1f" x1="0" y1="0" x2="0" y2="1"><stop offset="0" stop-color="#41523f"/><stop offset="1" stop-color="#2c3a2b"/></linearGradient>
  </defs>
  <rect width="1000" height="750" fill="url(#g1s)"/>
  <circle cx="770" cy="200" r="60" fill="#fbeccb"/>
  <path d="M0 380 C 220 350, 520 375, 1000 350 L1000 750 L0 750 Z" fill="url(#g1f)"/>
  <rect x="120" y="470" width="760" height="230" rx="10" fill="#cdb894"/>
  <rect x="120" y="470" width="760" height="230" rx="10" fill="#000" opacity="0.06"/>
  <line x1="373" y1="470" x2="373" y2="700" stroke="#b6a07d" stroke-width="4"/>
  <line x1="627" y1="470" x2="627" y2="700" stroke="#b6a07d" stroke-width="4"/>
  <line x1="120" y1="585" x2="880" y2="585" stroke="#b6a07d" stroke-width="4"/>
  <rect x="420" y="405" width="160" height="70" rx="8" fill="#5a4632"/>
  <g fill="#3c5330"><ellipse cx="150" cy="360" rx="80" ry="120"/><ellipse cx="860" cy="360" rx="70" ry="110"/></g>
  <g fill="#c06a44"><circle cx="250" cy="520" r="14"/><circle cx="740" cy="520" r="14"/></g>
</svg>
