<svg xmlns="http://www.w3.org/2000/svg" viewBox="0 0 1600 1000" preserveAspectRatio="xMidYMid slice" role="img" aria-label="Landscaped backyard at golden hour">
  <defs>
    <linearGradient id="sky" x1="0" y1="0" x2="0" y2="1">
      <stop offset="0" stop-color="#f4e8d0"/>
      <stop offset="0.55" stop-color="#e9d7b6"/>
      <stop offset="1" stop-color="#d9c79f"/>
    </linearGradient>
    <linearGradient id="lawn" x1="0" y1="0" x2="0" y2="1">
      <stop offset="0" stop-color="#7f9a5a"/>
      <stop offset="1" stop-color="#5c7a42"/>
    </linearGradient>
    <radialGradient id="sun" cx="0.78" cy="0.26" r="0.32">
      <stop offset="0" stop-color="#fff6e2" stop-opacity="0.95"/>
      <stop offset="1" stop-color="#fff6e2" stop-opacity="0"/>
    </radialGradient>
  </defs>
  <rect width="1600" height="1000" fill="url(#sky)"/>
  <rect width="1600" height="1000" fill="url(#sun)"/>
  <circle cx="1250" cy="255" r="86" fill="#fdf1d6"/>
  <path d="M0 470 C 300 405, 620 440, 900 415 C 1180 392, 1400 430, 1600 405 L1600 620 L0 620 Z" fill="#9fae7e" opacity="0.75"/>
  <path d="M0 560 C 260 520, 560 545, 880 525 C 1200 505, 1420 540, 1600 520 L1600 1000 L0 1000 Z" fill="url(#lawn)"/>
  <path d="M470 560 C 720 500, 900 560, 1130 545 C 1330 532, 1470 575, 1600 560 L1600 720 L520 720 Z" fill="#4d6a39" opacity="0.55"/>
  <g fill="#3f5a30">
    <ellipse cx="210" cy="500" rx="120" ry="150"/>
    <ellipse cx="330" cy="540" rx="90" ry="110"/>
  </g>
  <rect x="205" y="560" width="26" height="120" fill="#5a4632"/>
  <g fill="#456134" opacity="0.9">
    <ellipse cx="1410" cy="560" rx="150" ry="120"/>
    <ellipse cx="1520" cy="600" rx="110" ry="95"/>
  </g>
  <path d="M690 1000 C 760 820, 840 780, 940 760 C 1060 740, 1180 770, 1240 1000 Z" fill="#c8b489" opacity="0.9"/>
  <g fill="#b7744c">
    <circle cx="560" cy="720" r="16"/><circle cx="620" cy="700" r="13"/><circle cx="500" cy="705" r="12"/>
  </g>
  <g fill="#d98c63">
    <circle cx="1150" cy="690" r="14"/><circle cx="1090" cy="705" r="11"/>
  </g>
</svg>
